<?xml version="1.0" encoding="UTF-8"?>
<svg id="img" enable-background="new 0 0 1875 2431" version="1.1" viewBox="0 0 1875 2431" xml:space="preserve" xmlns="http://www.w3.org/2000/svg">
<path d="m1878 998v1436c-226.72 0-453.44 0-680.58-0.56885 23.717-4.5798 44.202-15.42 60.971-33.294 1.848-1.97 4.1492-3.5146 7.9303-6.6648v34.61c27.721-0.041015 54.498 0.15869 81.273-0.12354 0.31982-2.7471 0.60413-4.0515 0.60462-5.3557 0.022583-70.323 0.32776-140.65-0.16418-210.97-0.14697-20.993-6.6971-40.67-19.044-57.921-15.041-21.014-36.409-32.969-60.733-39.513-36.797-9.8994-73.815-7.9255-110.51 0.84351-29.415 7.0298-56.596 19.212-81.475 38.384 13.288 19.172 26.436 38.142 39.723 57.312 2.8949-1.8213 4.5878-2.8442 6.2385-3.9312 16.843-11.091 35.042-19.037 54.666-23.74 17.38-4.1641 34.8-5.2539 52.344-1.0674 22.511 5.3723 33.911 30.374 29.248 48.083h-9.6434c-20.664 0-41.331-0.25537-61.99 0.076172-18.661 0.29932-37.144 2.7095-55.018 8.1956-20.763 6.3728-39.053 16.691-52.531 34.475-20.446 26.979-21.864 80.553 1.5098 113.14 16.661 23.226 39.51 37.122 67.031 43.783 6.0385 1.4619 12.099 2.8337 18.149 4.2468h-1164c0-476.72 0-953.44 0.48672-1431.1 0.48672-0.9165 1.4602-0.9118 2.0791-0.35883 1.6822 14.459 1.92 28.489 3.9768 42.246 4.6116 30.845 9.2841 61.725 15.446 92.286 13.997 69.42 36.924 135.99 66.917 200.1 23.328 49.861 51.001 97.22 82.754 142.23 41.048 58.182 88.071 110.95 141.03 158.56 41.956 37.714 86.887 71.356 134.9 100.92 75.293 46.362 155.54 81.449 240.78 104.9 44.251 12.173 89.128 21.268 134.8 26.581 35.01 4.0725 70.051 7.0465 105.28 7.1283 17.943 0.041748 35.903-0.59314 53.827-1.4929 18.56-0.93176 37.096-2.4182 55.623-3.9027 37.825-3.0312 75.043-9.9324 111.98-18.33 62.483-14.205 122.85-34.766 181-61.669 37.197-17.208 73.185-36.673 107.88-58.568 55.654-35.12 106.98-75.688 154.22-121.44 28.241-27.345 54.551-56.474 79.064-87.206 39.143-49.075 73.099-101.53 101.87-157.32 17.56-34.05 32.642-69.2 45.905-105.14 20.083-54.416 34.675-110.29 44.152-167.49 5.319-32.103 9.5149-64.356 10.862-96.944 0.38611-1.22e-4 1.1582-0.015747 1.1582-0.015747m-1494.7 1303.7c29.838 39.161 59.821 78.212 89.37 117.59 4.8786 6.5015 9.821 9.2839 18.122 9.0615 23.309-0.62427 46.646-0.21753 69.972-0.21753h10.389c2.0168-14.894 1.3854-400.55-0.52032-407.82h-90.47v259.67c-3.7842-4.4094-6.2538-7.01-8.414-9.8459-32.655-42.868-65.232-85.796-97.904-128.65-29.45-38.629-59.094-77.111-88.363-115.88-3.4682-4.5934-7.0256-6.1271-12.486-6.0752-23.324 0.22156-46.651 0.073242-69.976 0.125-2.569 0.005737-5.1371 0.42956-8.1814 0.70215v406.65c12.619 2.0522 84.009 1.5015 91.364-0.75952 0-41.465-3e-5 -83.1-3e-5 -124.73 0-41.396 3e-5 -82.791 3e-5 -124.19 0.77472-0.20801 1.5495-0.41602 2.3242-0.62378 31.306 41.277 62.611 82.555 94.774 124.99m603.49-67.977c3.18-7.3064 6.9712-14.414 9.4331-21.954 10.137-31.049 10.645-62.881 4.8856-94.621-8.2876-45.676-35.535-74.619-80.33-87.144-23.187-6.483-46.821-10.097-70.809-10.253-56.307-0.3667-112.62-0.12817-168.93-0.086426-2.8574 0.002075-5.7145 0.45898-8.3732 0.68713-2.0069 15.543-1.2885 400.04 0.64319 407.05 15.836 1.8052 83.424 1.106 91.3-1.231v-128c19.917 0 38.852-0.2102 57.771 0.24634 2.5782 0.062256 5.7979 2.9475 7.5035 5.3792 27.323 38.952 54.57 77.959 81.476 117.2 3.6661 5.3469 7.4176 7.3396 13.82 7.2766 31.983-0.31445 63.972-0.13525 95.958-0.16064 2.483-0.002198 4.9659-0.24414 8.9138-0.4519-34.646-48.983-68.363-96.653-102.63-145.1 25.209-10.067 44.921-25.216 59.369-48.835m700.95-222.56c-0.15137-5.5082-0.30261-11.016-0.4491-16.349-21.419-1.9794-81.718-1.1382-88.416 1.0608v431.54h88.865c0-138.57 0-276.43 4.88e-4 -416.25m-259.54 177.88v238.5h86.929c0.4353-1.4583 0.94775-2.3743 0.94824-3.291 0.063721-101.22 0.091431-202.44 0.096435-303.66 1.23e-4 -1.6509-0.276-3.3049-0.48889-4.949-0.035278-0.27173-0.40588-0.50464-0.63208-0.74536-0.22559-0.24023-0.46399-0.46826-0.69775-0.70068-19.13-1.7371-78.233-0.97241-86.154 1.3516 0 23.659 0 47.576-3.66e-4 73.493m81.052-189.26c-16.207-18.267-47.624-17.314-62.979-8.3286-20.064 11.741-28.371 32.476-25.706 52.356 2.9508 22.01 18.561 39.164 38.336 43.829 23.829 5.6213 44.204-3.8123 56.364-20.464 12.276-16.811 13.423-47.459-6.0156-67.393z" fill="#fff"/>
<path d="m1876.5 998.02c-0.96057 32.588-5.1565 64.841-10.475 96.944-9.4771 57.197-24.068 113.07-44.152 167.49-13.263 35.936-28.345 71.085-45.905 105.14-28.77 55.788-62.725 108.24-101.87 157.32-24.513 30.732-50.823 59.861-79.064 87.206-47.246 45.748-98.57 86.315-154.22 121.44-34.696 21.894-70.684 41.36-107.88 58.568-58.152 26.902-118.52 47.464-181 61.669-36.94 8.3978-74.158 15.299-111.98 18.33-18.527 1.4845-37.064 2.9709-55.623 3.9027-17.924 0.89978-35.884 1.5347-53.827 1.4929-35.233-0.081787-70.274-3.0558-105.28-7.1283-45.673-5.313-90.55-14.408-134.8-26.581-85.244-23.45-165.49-58.537-240.78-104.9-48.013-29.564-92.944-63.206-134.9-100.92-52.957-47.602-99.98-100.37-141.03-158.56-31.753-45.007-59.425-92.366-82.754-142.23-29.993-64.106-52.92-130.68-66.917-200.1-6.1618-30.561-10.834-61.44-15.446-92.286-2.0568-13.758-2.2946-27.787-3.9846-43.124-1.2705-6.8512-1.9143-12.271-2.5581-17.692 0-29.375 0-58.75 0.61979-89.587 1.457-8.3461 2.3675-15.223 3.1182-22.117 2.6911-24.714 4.8347-49.499 8.0891-74.138 6.6302-50.197 18.844-99.184 34.35-147.3 18.509-57.441 42.491-112.56 71.738-165.41 34.952-63.162 76.546-121.61 125.05-174.95 33.6-36.951 69.575-71.636 108.76-102.77 47.006-37.344 96.857-70.345 150.03-98.365 71.307-37.577 146.21-65.255 224.66-83.579 49.262-11.506 99.207-18.238 150.45-22.177 6.2959-0.49082 11.717-1.0484 17.139-1.6059 29.375 0 58.75 0 89.62 0.57939 7.1275 0.70616 12.76 0.83294 19.258 1.1638 23.96 2.7233 47.091 4.9499 70.142 7.8235 45.954 5.7289 90.9 16.2 135.27 29.349 85.159 25.237 164.94 62.171 239.43 110.43 70.228 45.496 133.25 99.459 189.15 161.81 34.968 39.003 66.485 80.513 94.603 124.68 31.018 48.725 57.177 99.926 78.594 153.53 20.275 50.746 36.562 102.77 46.867 156.47 5.3125 27.684 9.3658 55.633 13.176 83.572 2.2837 16.745 3.0006 33.703 4.3372 51.454 0.45911 6.9691 1.0027 13.049 1.5464 19.129 0 24.708 0 49.417-0.58716 75.624-0.71045 7.7962-0.83386 14.094-0.95728 20.392m-1579.2 513.65c26.519 30.022 55.087 57.988 85.677 83.811 64.302 54.281 134.93 98.46 212.05 132.3 96.112 42.178 196.56 66.349 301.29 71.686 53.931 2.7482 107.81 0.69836 161.44-7.0258 48.866-7.0378 96.829-17.703 143.85-32.602 57.983-18.372 113.35-42.782 166.26-72.78 54.71-31.02 105.42-67.648 151.75-110.12 64.014-58.688 118.69-125.05 162.66-200.15 31.088-53.1 56.482-108.73 75.846-167.08 15.749-47.456 27.236-95.941 34.521-145.47 4.7529-32.313 7.8763-64.759 8.8707-97.332 0.72034-23.599-0.69214-47.266-1.2235-70.901-0.82483-36.693-5.9478-72.909-12.28-108.98-9.6417-54.926-24.791-108.37-45.181-160.2-25.213-64.08-57.243-124.63-96.883-181.1-44.686-63.656-96.798-120.36-156.83-169.81-80.56-66.354-170.28-116.35-268.83-150.52-64.092-22.223-129.99-36.632-197.49-42.956-39.098-3.6625-78.302-5.4663-117.7-3.0001-29.252 1.8312-58.36 4.2199-87.394 8.2389-48.267 6.6814-95.483 17.859-141.74 32.879-72.92 23.675-141.68 56.31-205.88 98.295-77.313 50.555-144.85 111.87-202.47 184.14-65.523 82.181-113.83 173.59-146.37 273.35-23.549 72.191-36.81 146.43-40.646 222.21-2.5119 49.627-0.55435 99.242 5.8756 148.57 5.5101 42.269 13.978 83.962 25.533 125.03 20.137 71.565 49.092 139.37 86.596 203.52 28.163 48.169 60.679 93.221 98.698 136.01z" fill="#8D9CA6"/>
<path d="m877.99 3.5392c-50.364 4.0066-100.31 10.738-149.57 22.244-78.45 18.324-153.36 46.001-224.66 83.579-53.172 28.021-103.02 61.022-150.03 98.365-39.184 31.13-75.16 65.815-108.76 102.77-48.502 53.339-90.096 111.79-125.05 174.95-29.247 52.853-53.229 107.97-71.738 165.41-15.506 48.12-27.72 97.107-34.35 147.3-3.2544 24.639-5.398 49.424-8.0891 74.138-0.7507 6.894-1.6612 13.771-3.1182 21.179-0.61979-296.66-0.61979-593.85-0.61979-891.48 291.37 0 582.75 0 875.06 0.38479 0.93341 0.38479 0.92804 1.1544 0.92804 1.1544z" fill="#fff"/>
<path d="m1876.5 881.98c-1.421-16.862-2.1379-33.82-4.4216-50.565-3.8103-27.94-7.8636-55.888-13.176-83.572-10.305-53.702-26.591-105.73-46.867-156.47-21.417-53.604-47.577-104.8-78.594-153.53-28.118-44.171-59.635-85.681-94.603-124.68-55.903-62.355-118.93-116.32-189.15-161.81-74.492-48.258-154.27-85.193-239.43-110.43-44.369-13.149-89.316-23.62-135.27-29.349-23.051-2.8736-46.182-5.1003-70.145-8.208-0.8678-0.58846-0.87549-1.3587-0.87549-1.3587h874c0 292.71 0 585.42-0.36548 879.05-0.36536 0.92792-1.0963 0.92865-1.0964 0.92865z" fill="#fff"/>
<path d="m1166.9 2434c-6.9825-1.4131-13.043-2.7849-19.081-4.2468-27.521-6.6619-50.37-20.558-67.031-43.783-23.374-32.585-21.956-86.159-1.5098-113.14 13.478-17.784 31.768-28.102 52.531-34.475 17.875-5.4861 36.357-7.8962 55.018-8.1956 20.658-0.33154 41.326-0.076172 61.99-0.076172h9.6434c4.6626-17.709-6.7367-42.71-29.248-48.083-17.544-4.1865-34.964-3.0967-52.344 1.0674-19.625 4.7021-37.824 12.648-54.666 23.74-1.6508 1.0869-3.3436 2.1099-6.2385 3.9312-13.286-19.17-26.434-38.14-39.723-57.312 24.879-19.172 52.06-31.354 81.475-38.384 36.694-8.769 73.712-10.743 110.51-0.84351 24.324 6.5442 45.692 18.499 60.733 39.513 12.347 17.251 18.897 36.928 19.044 57.921 0.49194 70.32 0.18677 140.65 0.16418 210.97-4.89e-4 1.3042-0.28479 2.6086-0.60462 5.3557-26.775 0.28223-53.552 0.08252-81.273 0.12354v-34.61c-3.7811 3.1501-6.0823 4.6948-7.9303 6.6648-16.769 17.875-37.254 28.714-61.893 33.294-9.8761 0.56885-19.255 0.56885-29.565 0.56885m77.793-90.272c14.313-13.701 16.708-30.694 14.266-49.343-23.548 0-46.433-0.4231-69.285 0.26245-6.7208 0.20142-13.609 2.9214-19.957 5.5903-9.9585 4.187-15.39 11.975-16.053 23.117-0.75378 12.656 2.7325 23.084 14.346 29.454 4.0325 2.2122 8.4185 4.1235 12.878 5.155 22.905 5.2979 44.194 2.292 63.806-14.236z" fill="#8D9CA5"/>
<path d="m1876.8 998.02c-0.26282-6.2979-0.1394-12.596 0.57104-19.455 0.58716 5.5003 0.58716 11.561 0.58716 18.531 0 0.9082-0.7721 0.92383-1.1582 0.92395z" fill="#FBFFFC"/>
<path d="m1876.5 882.87c0.084595-0.88892 0.81555-0.88965 1.1809-0.88025 0.36548 6.0706 0.36548 12.132 0.36548 19.101-0.5437-5.1719-1.0873-11.252-1.5464-18.221z" fill="#FBFFFC"/>
<path d="m1003.1 2c0.89996 0 0.90765 0.77028 0.9104 1.1547-5.6301 0.25764-11.263 0.13087-17.453-0.5753 4.8427-0.57939 10.243-0.57939 16.543-0.57939z" fill="#FBFFFC"/>
<path d="m2 984.9c0.64382 4.5202 1.2876 9.9404 1.9392 16.239 0.007739 0.87805-0.96576 0.87335-1.4525 0.86731-0.48672-5.406-0.48672-10.806-0.48672-17.106z" fill="#FBFFFC"/>
<path d="m878.86 3.6059c-0.87445-0.066713-0.86908-0.83631-0.86517-1.2211 5.4039-0.38479 10.804-0.38479 17.104-0.38479-4.5215 0.55753-9.9429 1.1151-16.239 1.6059z" fill="#FBFFFC"/>
<path d="m382.91 2301.1c-31.734-41.854-63.04-83.132-94.345-124.41-0.77472 0.20776-1.5495 0.41577-2.3242 0.62378 0 41.396-3e-5 82.791-3e-5 124.19 0 41.635 3e-5 83.269 3e-5 124.73-7.355 2.261-78.745 2.8118-91.364 0.75952v-406.65c3.0443-0.27258 5.6124-0.69641 8.1814-0.70215 23.326-0.051758 46.653 0.096557 69.976-0.125 5.4606-0.05188 9.0181 1.4818 12.486 6.0752 29.269 38.765 58.913 77.246 88.363 115.88 32.672 42.855 65.249 85.782 97.904 128.65 2.1602 2.8359 4.6298 5.4365 8.414 9.8459v-259.67h90.47c1.9057 7.2665 2.5371 392.92 0.52032 407.82h-10.389c-23.326 0-46.662-0.40674-69.972 0.21753-8.3013 0.22241-13.244-2.5601-18.122-9.0615-29.549-39.377-59.532-78.429-89.799-118.17z" fill="#8D9BA5"/>
<path d="m986.44 2234.3c-14.064 22.995-33.776 38.144-58.984 48.211 34.27 48.452 67.987 96.121 102.63 145.1-3.9479 0.20776-6.4308 0.44971-8.9138 0.4519-31.987 0.02539-63.975-0.15381-95.958 0.16064-6.4028 0.062989-10.154-1.9297-13.82-7.2766-26.906-39.24-54.153-78.248-81.476-117.2-1.7057-2.4316-4.9253-5.3169-7.5035-5.3792-18.919-0.45654-37.853-0.24634-57.771-0.24634v128c-7.8757 2.3369-75.463 3.0361-91.3 1.231-1.9316-7.0154-2.6501-391.51-0.64319-407.05 2.6588-0.22815 5.5158-0.68506 8.3732-0.68713 56.31-0.041748 112.62-0.28027 168.93 0.086426 23.988 0.15613 47.622 3.77 70.809 10.253 44.795 12.525 72.042 41.468 80.33 87.144 5.7591 31.741 5.2512 63.573-4.8856 94.621-2.4619 7.5408-6.2531 14.648-9.8177 22.578m-133.11-134.72c-18.245-2.26-80.013-2.2131-88.45 0.099121v117.77c2.2029 0.25586 3.8049 0.60205 5.4073 0.60425 24.661 0.031494 49.343 0.61499 73.973-0.25391 11.139-0.39307 22.38-2.9365 33.207-5.8645 14.482-3.9158 23.711-14.041 28.746-28.144 5.1918-14.542 5.1857-29.537 3.0142-44.4-2.9713-20.336-15.215-32.735-35.38-36.947-6.1633-1.2876-12.465-1.9133-20.518-2.8616z" fill="#8C9BA5"/>
<path d="m1687.8 2012.1c-2.44e-4 138.84-2.44e-4 276.69-2.44e-4 415.27h-88.865v-431.54c6.6985-2.199 66.997-3.0402 88.416-1.0608 0.14648 5.3325 0.29773 10.841 0.44885 17.335z" fill="#8D9CA6"/>
<path d="m1428.2 2188c1.22e-4 -24.917 1.22e-4 -48.834 1.22e-4 -72.493 7.9211-2.324 67.025-3.0886 86.155-1.3521 0.23328 0.23291 0.47168 0.46094 0.69727 0.70117 0.2262 0.24072 0.5968 0.47363 0.63208 0.74536 0.21289 1.644 0.48901 3.2981 0.48889 4.949-0.005004 101.22-0.032714 202.44-0.096435 303.66-4.88e-4 0.91675-0.51294 1.8328-0.94824 3.291h-86.929c0-79.625 0-159.06 2.44e-4 -239.5z" fill="#8D9CA6"/>
<path d="m1509.8 2000.2c18.93 19.423 17.784 50.071 5.5076 66.882-12.16 16.652-32.535 26.085-56.364 20.464-19.775-4.6653-35.385-21.819-38.336-43.829-2.6652-19.88 5.6411-40.615 25.706-52.356 15.354-8.985 46.772-9.9388 63.487 8.8392z" fill="#8D9CA6"/>
<path d="m296.86 1511.1c-37.574-42.238-70.09-87.29-98.253-135.46-37.504-64.146-66.459-131.95-86.596-203.52-11.555-41.065-20.023-82.758-25.533-125.03-6.43-49.325-8.3875-98.941-5.8756-148.57 3.8353-75.774 17.096-150.02 40.646-222.21 32.544-99.764 80.851-191.17 146.37-273.35 57.618-72.267 125.16-133.59 202.47-184.14 64.207-41.985 132.96-74.621 205.88-98.295 46.262-15.02 93.478-26.198 141.74-32.879 29.034-4.019 58.141-6.4077 87.394-8.2389 39.396-2.4662 78.6-0.66239 117.7 3.0001 67.5 6.3231 133.4 20.732 197.49 42.956 98.551 34.171 188.27 84.17 268.83 150.52 60.036 49.449 112.15 106.16 156.83 169.81 39.641 56.469 71.671 117.02 96.883 181.1 20.391 51.824 35.54 105.27 45.181 160.2 6.3324 36.073 11.455 72.289 12.28 108.98 0.53137 23.635 1.9438 47.302 1.2235 70.901-0.99438 32.573-4.1178 65.019-8.8707 97.332-7.2854 49.529-18.772 98.015-34.521 145.47-19.364 58.349-44.759 113.98-75.846 167.08-43.969 75.102-98.647 141.46-162.66 200.15-46.33 42.476-97.045 79.104-151.75 110.12-52.906 29.997-108.28 54.407-166.26 72.78-47.024 14.9-94.987 25.564-143.85 32.602-53.632 7.7241-107.51 9.7739-161.44 7.0258-104.74-5.3373-205.18-29.508-301.29-71.686-77.118-33.843-147.75-78.022-212.05-132.3-30.59-25.823-59.158-53.789-86.122-84.36m1444.7-522.76c0.25415-25.307 1.1375-50.625 0.63611-75.917-1.1732-59.206-10.039-117.43-25.263-174.59-42.229-158.54-123.73-293.33-247.61-401.2-140.82-122.62-305.34-188.27-491.76-198.24-58.721-3.1394-117.17 0.98058-175.17 11.301-87.967 15.654-171.08 44.974-249.34 87.979-74.488 40.934-141.01 92.33-198.58 154.85-128.79 139.85-199.92 305.01-213.99 494.46-6.2397 84.023 1.7547 167.07 22.779 248.69 41.397 160.71 124.32 296.18 248.25 406.53 7.1637 6.3783 14.723 12.312 22.892 19.113 11.683-15.087 22.84-29.5 34.003-43.908 11.225-14.489 22.445-28.981 33.687-43.457 11.13-14.332 22.285-28.645 33.694-43.307 19.093 15.689 37.028 30.427 55.378 45.505-9.2068 11.995-17.801 23.193-27.201 35.44h753.85c-9.9115-12.851-18.965-24.589-28.484-36.931 18.552-15.243 36.755-30.199 55.507-45.606 34.319 44.282 68.147 87.931 102.59 132.38 4.3405-3.5872 8.1804-6.6686 11.922-9.8658 123.48-105.53 207.39-236.6 252.81-392.4 16.087-55.191 25.458-111.6 29.397-170.82m-820.56 570.27c-126.99 0-253.98 0-380.96 3.66e-4 -2.6664 0-5.4128-0.39221-7.976 0.12341-2.4144 0.48572-5.4165 1.3047-6.8186 3.0529-11.002 13.718-21.681 27.695-33.158 42.492 8.1416 5.2952 15.773 9.8893 22.992 15.059 7.0551 5.0518 14.477 6.8641 23.244 6.856 222.64-0.20825 445.29-0.16418 667.93-0.16406 46.995 0 93.991 0.015747 140.99-0.035034 3.2941-0.00354 7.1929 0.54504 9.7761-0.95007 10.855-6.2828 21.318-13.245 32.468-20.303-2.1521-3.0743-3.5647-5.2655-5.1482-7.3254-7.7177-10.039-15.946-19.726-23.064-30.171-4.708-6.9077-10.189-8.8276-18.315-8.8134-139.99 0.24731-279.97 0.1781-421.96 0.17786m157.84 171.22c63.203-11.314 124.22-29.646 182.72-56.093-34.351-2.8075-633.94-1.8148-642.52 0.75293 148.03 63.285 300.25 82.408 459.81 55.34z" fill="#FDFEFE"/>
<path d="m1244.2 2344.2c-19.098 16.021-40.388 19.027-63.293 13.729-4.4596-1.0315-8.8456-2.9429-12.878-5.155-11.613-6.3704-15.099-16.798-14.346-29.454 0.66357-11.142 6.0947-18.93 16.053-23.117 6.3479-2.6689 13.236-5.3889 19.957-5.5903 22.852-0.68555 45.736-0.26245 69.285-0.26245 2.4424 18.648 0.047729 35.641-14.778 49.85z" fill="#FEFEFE"/>
<path d="m854.23 2099.6c7.1456 0.93872 13.447 1.5645 19.611 2.852 20.165 4.2122 32.408 16.611 35.38 36.947 2.1716 14.863 2.1776 29.857-3.0142 44.4-5.0349 14.103-14.264 24.228-28.746 28.144-10.827 2.928-22.068 5.4714-33.207 5.8645-24.63 0.8689-49.312 0.2854-73.973 0.25391-1.6024-0.002197-3.2044-0.34839-5.4073-0.60425v-117.77c8.4369-2.3123 70.205-2.3591 89.357-0.089599z" fill="#FEFEFE"/>
<path d="m1741.5 989.3c-3.8834 58.282-13.254 114.69-29.342 169.88-45.414 155.8-129.32 286.87-252.81 392.4-3.7411 3.1973-7.5811 6.2787-11.922 9.8658-34.446-44.447-68.274-88.096-102.59-132.38-18.752 15.407-36.955 30.363-55.507 45.606 9.5195 12.343 18.573 24.081 28.484 36.931h-753.85c9.4003-12.248 17.995-23.445 27.201-35.44-18.349-15.078-36.285-29.816-55.378-45.505-11.409 14.662-22.563 28.975-33.694 43.307-11.242 14.476-22.462 28.968-33.687 43.457-11.163 14.408-22.32 28.821-34.003 43.908-8.1682-6.8009-15.728-12.735-22.892-19.113-123.94-110.35-206.86-245.82-248.25-406.53-21.024-81.622-29.019-164.67-22.779-248.69 14.069-189.46 85.2-354.61 213.99-494.46 57.571-62.516 124.09-113.91 198.58-154.85 78.257-43.006 161.37-72.325 249.34-87.979 57.995-10.32 116.45-14.44 175.17-11.301 186.42 9.9665 350.94 75.617 491.76 198.24 123.88 107.87 205.38 242.66 247.61 401.2 15.224 57.154 24.09 115.38 25.263 174.59 0.50134 25.292-0.38196 50.611-0.69165 76.856m-550.34-111.82c47.995 7.32e-4 95.992-0.17078 143.98 0.16248 8.5376 0.059327 17.421 1.0657 25.527 3.6055 31.549 9.8852 51.213 38.108 51.262 73.173 0.13904 98.663 0.053955 197.33 0.039673 295.99-3.67e-4 2.2405-0.2096 4.4811-0.31384 6.5703-14.225 2.0746-170.05 1.4482-177.92-0.91565v-39.986c-38.122-1.9948-191.56-1.0332-199.22 1.1207v246.28h10.516c64.997 0 130-0.090088 194.99 0.13342 6.7872 0.023315 11.898-1.9556 17.07-6.2222 59.385-48.992 118.88-97.856 178.52-146.53 4.9078-4.0055 6.6832-8.0441 6.6785-14.308-0.16186-209.99-0.151-419.98-0.049072-629.97 0.002808-5.849-1.2911-11.02-3.704-16.278-27.077-59.009-53.965-118.11-81.097-177.09-2.0303-4.4136-4.973-8.7292-8.4481-12.106-30.114-29.262-60.489-58.256-90.691-87.428-9.3048-8.9872-19.831-13.469-33.149-13.453-190.33 0.23007-380.65 0.23895-570.98-0.014496-13.68-0.018219-24.428 4.4645-34.014 13.752-29.917 28.987-60.104 57.694-89.974 86.728-3.7026 3.5989-6.8674 8.1716-9.0316 12.869-27.307 59.269-54.453 118.61-81.39 178.05-2.1114 4.6591-3.3145 10.167-3.3185 15.281-0.16272 209.66-0.11169 419.32-0.26678 628.97-0.004853 6.5703 1.8385 10.871 7.0506 15.121 59.921 48.863 119.66 97.949 179.29 147.16 4.6997 3.8787 9.3039 5.4612 15.34 5.4448 65.664-0.17786 131.33-0.11133 196.99-0.11133h9.5049v-247.06h-203.01v41.142h-174.27c-0.18872-3.3555-0.49536-6.2717-0.49609-9.188-0.024902-97.329-0.076141-194.66 0.087342-291.99 0.012787-7.598 0.70325-15.406 2.5355-22.753 8.4128-33.734 37.135-55.968 72.363-56.098 50.331-0.1864 100.66-0.040466 150.99-0.066711 3.5289-0.001892 7.0578-0.2536 11.096-0.40857 0-4.4131-6.1e-5 -7.718 0-11.023 1.22e-4 -25.999 0.71051-52.022-0.17993-77.991-1.1024-32.151 24.795-67.83 67.691-67.844 112-0.038757 223.99-0.066711 335.99 0.11176 6.8977 0.010986 14.026 1.0482 20.648 2.9763 28.861 8.4021 47.338 33.964 47.558 65.413 0.18188 25.998 0.037964 51.998 0.03833 77.997v10.786c5.2961 0 9.5476 0 15.749 1.22e-4m-460.84 249.52v56.476c16.647 2.0005 410.46 1.2479 417.15-0.58337v-144.24c-3.9626 0-7.2375 0.012695-10.512-0.002075-15.325-0.069092-30.67 0.3219-45.972-0.31738-31.529-1.3173-57.061-20.912-67.255-50.898-0.83179-2.4465-1.6645-4.8927-2.4128-7.0922h-164.05c-9.6259 36.273-39.98 60.116-78.739 58.403-13.303-0.58814-26.653-0.13306-39.982-0.056885-2.5536 0.014526-5.1047 0.48669-8.2288 0.80627 0 28.936 0 57.221-1.22e-4 87.506m374.42-379.52c-110.31-1.22e-4 -220.61 0.33386-330.92-0.24792-25.843-0.13629-44.27 18.913-43.652 43.813 0.63678 25.644 0.12256 51.317 0.16614 76.977 0.004883 2.8817 0.36206 5.7626 0.57709 8.9603h416.72c0.19287-3.3422 0.50244-6.2503 0.50659-9.1588 0.037476-25.993-0.59973-52.006 0.20032-77.975 0.75146-24.395-19.294-44.025-43.6-42.369m-219.7 718.89h125.95v-249.99h-143.1v249.99h17.144m-354.05-427.72h-36.646v145.05h208.75v-145.05c-57.079 0-113.59 0-172.1-3.66e-4m766 0.004883h-121.12v145.19h208.23v-145.19c-28.643 0-56.878 0-87.113-4.88e-4m-686-134.48c-22.987 0.001587-45.976-0.21118-68.959 0.062378-25.373 0.302-46.568 18.99-47.755 43.304-1.0048 20.591-0.15976 41.273-0.074097 61.915 0.002167 0.51581 0.6984 1.0287 1.1636 1.671h207.79v-106.95c-30.391 0-60.278 0-92.165-6.1e-5m570.46 107.51h203.12c0-19.98-0.72876-38.641 0.17371-57.223 1.3011-26.795-20.291-50.62-50.17-50.389-50.292 0.38794-100.59 0.096557-150.89 0.1311-2.5616 0.00177-5.1229 0.38153-8.2815 0.63281v9.5003c0 28.978-0.002197 57.956 0.003906 86.934 4.89e-4 2.3309-0.42297 4.8162 0.25794 6.9386 0.45447 1.4166 2.5195 2.3165 5.776 3.4752m-349.61-62.744c0-7.3162 0.046998-14.633-0.012939-21.949-0.06134-7.4824-0.2276-14.964-0.34259-22.115h-100.55v106.46c20.162 0 39.798 1.2019 59.219-0.32806 20.629-1.6252 36.25-17.058 40.195-37.306 1.4443-7.4124 1.0486-15.183 1.4924-24.763m216.04 23.638c3.0526 19.936 21.787 40.007 49.514 39.149 7.9882-0.24707 15.99-0.037048 23.986-0.036865 8.578 2.44e-4 17.156 6.1e-5 25.529 6.1e-5 2.1113-12.219 1.6531-100.15-0.35998-107.01h-98.874c0 22.4 0 44.303 0.2052 67.9m-70.892-68.407h-117.8v47.632h160.18v-47.632c-13.873 0-27.125 0-42.376-6.1e-5z" fill="#07DE3B"/>
<path d="m922 1558.6c140.99 0 280.97 0.069214 420.96-0.1781 8.126-0.014283 13.607 1.9056 18.315 8.8134 7.1187 10.445 15.347 20.132 23.064 30.171 1.5835 2.0599 2.9961 4.2511 5.1482 7.3254-11.15 7.0579-21.612 14.02-32.468 20.303-2.5833 1.4951-6.4821 0.94653-9.7761 0.95007-46.995 0.050781-93.991 0.035034-140.99 0.035034-222.64-1.22e-4 -445.29-0.04419-667.93 0.16406-8.7672 0.008179-16.189-1.8042-23.244-6.856-7.2193-5.1697-14.851-9.7638-22.992-15.059 11.477-14.797 22.156-28.774 33.158-42.492 1.4021-1.7482 4.4042-2.5671 6.8186-3.0529 2.5632-0.51562 5.3096-0.12341 7.976-0.12341 126.99-3.66e-4 253.98-3.66e-4 381.96-1.22e-4z" fill="#0ADE3C"/>
<path d="m1078 1730c-158.7 26.966-310.91 7.8427-458.95-55.442 8.5876-2.5677 608.17-3.5604 642.52-0.75293-58.494 26.448-119.51 44.779-183.58 56.195z" fill="#0DDF3E"/>
<path d="m1190.2 877.48c-5.2266-6.1e-5 -9.478-6.1e-5 -14.774-6.1e-5v-10.786c-3.66e-4 -25.999 0.14356-51.999-0.03833-77.997-0.21997-31.449-18.697-57.011-47.558-65.413-6.6226-1.9281-13.75-2.9653-20.648-2.9763-112-0.17847-223.99-0.15051-335.99-0.11176-42.896 0.014832-68.793 35.693-67.691 67.844 0.89044 25.968 0.18005 51.992 0.17993 77.991-6.1e-5 3.3049 0 6.6097 0 11.023-4.0382 0.15497-7.5671 0.40668-11.096 0.40857-50.331 0.026245-100.66-0.11969-150.99 0.066711-35.228 0.13043-63.95 22.364-72.363 56.098-1.8322 7.3472-2.5227 15.156-2.5355 22.753-0.16348 97.329-0.11224 194.66-0.087342 291.99 7.33e-4 2.9163 0.30737 5.8325 0.49609 9.188h174.27v-41.142h203.01v247.06h-9.5049c-65.664 0-131.33-0.066528-196.99 0.11133-6.0365 0.016358-10.641-1.5662-15.34-5.4448-59.634-49.213-119.37-98.299-179.29-147.16-5.2121-4.2502-7.0555-8.5505-7.0506-15.121 0.15509-209.66 0.10406-419.32 0.26678-628.97 0.003967-5.1145 1.2071-10.622 3.3185-15.281 26.936-59.439 54.082-118.78 81.39-178.05 2.1642-4.6973 5.329-9.27 9.0316-12.869 29.87-29.034 60.057-57.742 89.974-86.728 9.5853-9.2873 20.334-13.77 34.014-13.752 190.33 0.25345 380.65 0.24457 570.98 0.014496 13.318-0.016113 23.844 4.4655 33.149 13.453 30.202 29.172 60.577 58.166 90.691 87.428 3.4751 3.3768 6.4178 7.6924 8.4481 12.106 27.132 58.984 54.021 118.08 81.097 177.09 2.4128 5.2582 3.7068 10.429 3.704 16.278-0.10193 209.99-0.11279 419.98 0.049072 629.97 0.004761 6.2643-1.7706 10.303-6.6785 14.308-59.643 48.677-119.13 97.542-178.52 146.53-5.1718 4.2666-10.283 6.2455-17.07 6.2222-64.997-0.22351-129.99-0.13342-194.99-0.13342h-10.516v-246.28c7.6626-2.1539 161.1-3.1155 199.22-1.1207v39.986c7.8718 2.3639 163.7 2.9902 177.92 0.91565 0.10425-2.0892 0.31348-4.3298 0.31384-6.5703 0.014282-98.663 0.099365-197.33-0.039673-295.99-0.049439-35.065-19.713-63.288-51.262-73.173-8.1061-2.5398-16.989-3.5461-25.527-3.6055-47.993-0.33325-95.99-0.16174-144.96-0.16254m-562.6-447.08c-15.068 14.121-30.282 28.093-45.108 42.464-3.9548 3.8338-7.5459 8.501-9.9028 13.452-18.881 39.664-37.436 79.484-56.051 119.27-1.3654 2.9186-2.4153 5.9847-3.8079 9.4731h657.03v-193.9h-12.322c-169.24 0-338.49 0.054718-507.73-0.15961-8.577-0.010864-15.68 1.3925-22.108 9.3974m649.4 185.3h89.326c-1.0884-2.9059-1.5468-4.4446-2.2203-5.8826-19.751-42.17-39.499-84.341-59.351-126.46-1.2455-2.6425-2.9794-5.2602-5.0839-7.2603-18.099-17.202-36.298-34.301-54.592-51.295-1.8273-1.6974-4.4648-3.4984-6.7653-3.551-14.226-0.32529-28.463-0.16351-42.483-0.16351-2.1083 12.154-1.6504 187.1 0.47058 194.62 26.13 0 52.414 0 80.699 6.1e-5m-591.95 677.11c-6.9796 3.6632-9.5648 9.5062-9.4493 17.269 0.24768 16.654 0.004883 33.315 0.097962 49.973 0.076355 13.676 5.8189 19.547 19.378 19.607 24.987 0.10962 49.974 0.099732 74.961 0.001221 13.583-0.053589 19.643-6.0022 19.764-19.427 0.14642-16.323 0.11938-32.65 0.008484-48.974-0.095703-14.078-5.8585-19.714-20.254-19.765-24.654-0.086914-49.308-0.046997-73.962 0.011109-2.9803 0.00708-5.9595 0.45728-10.544 1.3049m436.08-1.3411c-3.3296 0.001099-6.6603-0.052734-9.9885 0.012939-13.184 0.26038-18.995 5.8532-19.104 18.804-0.13953 16.647-0.11646 33.296-0.007934 49.943 0.087768 13.455 6.0525 19.381 19.644 19.433 24.971 0.095703 49.944 0.10132 74.915-0.002929 13.569-0.056641 19.455-5.954 19.552-19.491 0.11694-16.314 0.09607-32.63 0.005738-48.944-0.078858-14.25-5.5948-19.671-20.123-19.73-20.976-0.085449-41.952-0.023804-64.894-0.024658m-515.94 66.802c2.9367-0.44409 6.032-0.43994 8.7814-1.4133 9.5073-3.3657 15.489-12.605 14.967-22.497-0.53436-10.131-7.011-18.121-17.026-21.002-9.5269-2.7407-19.753 1.1082-25.273 9.5123-9.3766 14.273-1.3552 31.048 18.551 35.4m692.9-28.225c-1.2313-2.7015-2.0883-5.6647-3.7607-8.0579-6.1552-8.8073-17.609-11.885-27.525-7.6991-9.8575 4.161-15.605 14.813-13.569 25.147 2.241 11.375 11.083 18.518 22.429 18.912 12.156 0.42261 25.587-11.332 22.426-28.302z" fill="#FDFFFD"/>
<path d="m730.32 1126c6.1e-5 -29.285 6.1e-5 -57.57 6.1e-5 -86.506 3.1241-0.31958 5.6752-0.79175 8.2288-0.80627 13.328-0.076172 26.679-0.53125 39.982 0.056885 38.758 1.7134 69.113-22.13 78.739-58.403h164.05c0.74829 2.1995 1.581 4.6458 2.4128 7.0922 10.195 29.986 35.726 49.58 67.255 50.898 15.302 0.63928 30.647 0.24829 45.972 0.31738 3.2749 0.01477 6.5498 0.002075 10.512 0.002075v144.24c-6.6897 1.8313-400.5 2.5839-417.15 0.58337 0-18.709 0-37.592 6.1e-5 -57.476m40.868-65.365c-2.8924 0.66797-5.9435 0.95239-8.649 2.0719-10.43 4.3159-15.919 16.035-12.926 27.032 3.071 11.281 12.951 17.928 24.828 16.702 11.423-1.1786 19.911-10.464 20.171-22.064 0.28235-12.615-7.0688-20.593-23.423-23.741m358.7 25.736c-0.13403-2.6376 0.12598-5.3679-0.46924-7.897-2.8018-11.906-14.575-19.579-26.311-17.376-12.593 2.3638-20.772 13.659-18.933 26.147 1.765 11.985 12.464 20.349 24.91 19.209 11.354-1.04 17.807-7.7797 20.803-20.083m-378.38 48.526c-0.77173 2.1863-1.8131 4.3177-2.27 6.568-2.4148 11.893 5.4186 24.008 17.07 26.612 12.168 2.7197 24.352-4.2751 27.488-15.781 3.4182-12.539-3.2826-24.939-15.524-28.402-10.973-3.1044-19.593 0.49609-26.765 11.003m343.8-8.9681c-2.0103 1.7059-4.2999 3.175-5.9813 5.1595-6.6899 7.8966-7.1423 19.215-1.3365 27.683 5.752 8.3899 16.498 11.978 26.405 8.817 9.5137-3.0355 16.065-12.702 15.578-22.988-0.48694-10.299-7.645-18.549-17.911-21.116-5.4514-1.3634-10.48-0.57898-16.755 2.4441z" fill="#FDFFFE"/>
<path d="m1105.7 747.48c23.349-1.657 43.395 17.973 42.644 42.368-0.80005 25.969-0.16284 51.981-0.20032 77.975-0.00415 2.9085-0.31372 5.8166-0.50659 9.1588h-416.72c-0.21503-3.1976-0.5722-6.0786-0.57709-8.9603-0.043579-25.66 0.47064-51.333-0.16614-76.977-0.61829-24.9 17.809-43.949 43.652-43.813 110.3 0.58179 220.61 0.2478 331.87 0.2486m-188.94 46.812c-0.070739 2.963-0.62579 6.0101-0.12756 8.8741 2.0453 11.758 12.335 19.648 24.291 18.973 10.995-0.6214 20.135-9.3187 21.171-20.145 1.1677-12.209-5.9808-22.434-17.668-25.272-11.468-2.7845-21.491 3.153-27.666 17.57z" fill="#FDFFFD"/>
<path d="m884.06 1466.4h-16.153v-249.99h143.1v249.99h-126.95z" fill="#FEFFFE"/>
<path d="m532 1038.6c57.512 2.44e-4 114.02 2.44e-4 171.1 2.44e-4v145.05h-208.75v-145.05c12.241 0 24.444 0 37.646 1.22e-4z" fill="#FDFFFE"/>
<path d="m1298 1038.7c29.235 2.44e-4 57.469 2.44e-4 86.113 2.44e-4v145.19h-208.23v-145.19c40.658 0 80.888 0 122.12 2.44e-4z" fill="#FDFFFE"/>
<path d="m612 904.17h91.165v106.95h-207.79c-0.46521-0.64221-1.1614-1.1552-1.1636-1.671-0.085663-20.641-0.93072-41.323 0.074097-61.915 1.1864-24.314 22.381-43.002 47.755-43.304 22.983-0.27356 45.973-0.060791 69.959-0.062317z" fill="#FCFFFD"/>
<path d="m1180.5 1011.7c-2.3003-1.145-4.3654-2.0448-4.8198-3.4614-0.68091-2.1224-0.25745-4.6077-0.25794-6.9386-0.006103-28.978-0.003906-57.956-0.003906-86.934v-9.5003c3.1586-0.25128 5.7198-0.63104 8.2815-0.63281 50.295-0.034546 100.59 0.25684 150.89-0.1311 29.879-0.23053 51.471 23.595 50.17 50.389-0.90247 18.582-0.17371 37.243-0.17371 57.223-68.151 0-135.64 0-204.08-0.013794z" fill="#FDFFFD"/>
<path d="m831.85 949.93c-0.44372 8.5938-0.048095 16.365-1.4924 23.777-3.9452 20.248-19.566 35.681-40.195 37.306-19.421 1.53-39.057 0.32806-59.219 0.32806v-106.46h100.55c0.11499 7.1506 0.28125 14.632 0.34259 22.115 0.059937 7.3157 0.012939 14.632 0.012939 22.935z" fill="#FBFFFC"/>
<path d="m1047.8 971.73c-0.10266-22.75-0.10266-44.653-0.10266-67.053h98.874c2.0131 6.8581 2.4713 94.793 0.35998 107.01-8.3729 0-16.951 1.83e-4 -25.529-6.1e-5 -7.9958-1.83e-4 -15.998-0.2102-23.986 0.036865-27.727 0.8576-46.461-19.214-49.616-39.997z" fill="#FDFFFD"/>
<path d="m978 904.17c14.251 6.1e-5 27.503 6.1e-5 41.376 6.1e-5v47.632h-160.18v-47.632h118.8z" fill="#FBFFFE"/>
<path d="m628.16 429.91c5.8693-7.5204 12.973-8.9237 21.55-8.9129 169.24 0.21432 338.49 0.15961 507.73 0.15961h12.322v193.9h-657.03c1.3926-3.4884 2.4426-6.5545 3.8079-9.4731 18.615-39.791 37.17-79.61 56.051-119.27 2.3569-4.9515 5.948-9.6187 9.9028-13.452 14.826-14.372 30.039-28.343 45.666-42.949z" fill="#07DE3B"/>
<path d="m1276 615.7h-79.699c-2.121-7.5112-2.5789-182.46-0.47058-194.62 14.019 0 28.256-0.16177 42.483 0.16351 2.3004 0.052582 4.938 1.8536 6.7653 3.551 18.294 16.994 36.493 34.093 54.592 51.295 2.1045 2.0002 3.8384 4.6178 5.0839 7.2603 19.852 42.122 39.6 84.293 59.351 126.46 0.67358 1.438 1.132 2.9767 2.2203 5.8826-30.454 0-59.89 0-90.326-6.1e-5z" fill="#09DE3D"/>
<path d="m685.85 1292.5c3.7822-0.54626 6.7614-0.99646 9.7417-1.0035 24.654-0.058106 49.308-0.098023 73.962-0.011109 14.396 0.050904 20.158 5.6871 20.254 19.765 0.1109 16.324 0.13794 32.651-0.008484 48.974-0.12042 13.425-6.1801 19.373-19.764 19.427-24.987 0.098511-49.974 0.1084-74.961-0.001221-13.559-0.05957-19.302-5.9308-19.378-19.607-0.093079-16.658 0.14972-33.318-0.097962-49.973-0.11548-7.7625 2.4697-13.605 10.252-17.57z" fill="#08DE3C"/>
<path d="m1122.1 1291.5c21.959 9.76e-4 42.935-0.060669 63.911 0.02478 14.528 0.059204 20.044 5.4806 20.123 19.73 0.090332 16.314 0.11121 32.63-0.005738 48.944-0.097046 13.537-5.9828 19.435-19.552 19.491-24.971 0.10425-49.944 0.098632-74.915 0.002929-13.591-0.052124-19.556-5.978-19.644-19.433-0.10852-16.647-0.13159-33.296 0.007934-49.943 0.10852-12.951 5.92-18.544 19.104-18.804 3.3282-0.065673 6.6589-0.01184 10.971-0.013061z" fill="#08DE3C"/>
<path d="m604.36 1358.2c-19.077-4.3138-27.098-21.088-17.721-35.361 5.5209-8.4042 15.747-12.253 25.273-9.5123 10.015 2.8813 16.492 10.87 17.026 21.002 0.52155 9.8915-5.4601 19.131-14.967 22.497-2.7493 0.97339-5.8447 0.96924-9.611 1.375z" fill="#0DDF3E"/>
<path d="m1298.2 1330.9c3.0385 16.142-10.392 27.896-22.548 27.473-11.346-0.39453-20.188-7.5371-22.429-18.912-2.0359-10.334 3.7118-20.986 13.569-25.147 9.9158-4.1857 21.37-1.1082 27.525 7.6991 1.6725 2.3932 2.5294 5.3563 3.8832 8.887z" fill="#0DDF3E"/>
<path d="m771.97 1060.6c15.576 3.1437 22.927 11.122 22.645 23.737-0.25952 11.6-8.7483 20.886-20.171 22.064-11.877 1.2255-21.756-5.421-24.828-16.702-2.9935-10.996 2.4957-22.716 12.926-27.032 2.7056-1.1195 5.7567-1.4039 9.4277-2.0675z" fill="#0DDF3E"/>
<path d="m1129.8 1087.2c-2.8999 11.5-9.3528 18.24-20.707 19.28-12.446 1.14-23.145-7.2244-24.91-19.209-1.8391-12.488 6.3398-23.783 18.933-26.147 11.736-2.203 23.509 5.4705 26.311 17.376 0.59521 2.5291 0.3352 5.2594 0.37305 8.7007z" fill="#0DDF3E"/>
<path d="m751.85 1134.2c6.8338-9.8353 15.454-13.436 26.427-10.331 12.241 3.4633 18.942 15.864 15.524 28.402-3.1365 11.506-15.32 18.5-27.488 15.781-11.652-2.6042-19.485-14.719-17.07-26.612 0.45691-2.2502 1.4983-4.3817 2.6079-7.2397z" fill="#0DDF3E"/>
<path d="m1096 1125.6c5.6113-2.6661 10.64-3.4506 16.092-2.0872 10.266 2.5673 17.424 10.818 17.911 21.116 0.48633 10.285-6.0648 19.952-15.578 22.988-9.9069 3.1613-20.653-0.42712-26.405-8.817-5.8058-8.4681-5.3534-19.787 1.3365-27.683 1.6814-1.9845 3.9711-3.4536 6.6447-5.5165z" fill="#0DDF3E"/>
<path d="m917.02 793.55c5.9169-13.674 15.939-19.612 27.408-16.827 11.687 2.8377 18.836 13.063 17.668 25.272-1.0355 10.826-10.176 19.523-21.171 20.145-11.955 0.67572-22.245-7.215-24.291-18.973-0.49823-2.864 0.056824-5.9111 0.38562-9.6169z" fill="#0DDF3E"/>
</svg>
